<svg id="visual" viewBox="0 0 960 540" width="960" height="540" xmlns="http://www.w3.org/2000/svg" xmlns:xlink="http://www.w3.org/1999/xlink" version="1.1"><rect x="0" y="0" width="960" height="540" fill="#49c36c"></rect><path d="M0 457L11.5 462.5C23 468 46 479 68.8 484.5C91.7 490 114.3 490 137.2 487.8C160 485.7 183 481.3 205.8 478.7C228.7 476 251.3 475 274.2 476.2C297 477.3 320 480.7 342.8 486.5C365.7 492.3 388.3 500.7 411.2 505.2C434 509.7 457 510.3 480 509.2C503 508 526 505 548.8 505.3C571.7 505.7 594.3 509.3 617.2 509.5C640 509.7 663 506.3 685.8 503.8C708.7 501.3 731.3 499.7 754.2 492C777 484.3 800 470.7 822.8 466.2C845.7 461.7 868.3 466.3 891.2 476C914 485.7 937 500.3 948.5 507.7L960 515L960 541L948.5 541C937 541 914 541 891.2 541C868.3 541 845.7 541 822.8 541C800 541 777 541 754.2 541C731.3 541 708.7 541 685.8 541C663 541 640 541 617.2 541C594.3 541 571.7 541 548.8 541C526 541 503 541 480 541C457 541 434 541 411.2 541C388.3 541 365.7 541 342.8 541C320 541 297 541 274.2 541C251.3 541 228.7 541 205.8 541C183 541 160 541 137.2 541C114.3 541 91.7 541 68.8 541C46 541 23 541 11.5 541L0 541Z" fill="#21201e" stroke-linecap="round" stroke-linejoin="miter"></path></svg>