<svg id="visual" viewBox="0 0 960 540" width="960" height="540" xmlns="http://www.w3.org/2000/svg" xmlns:xlink="http://www.w3.org/1999/xlink" version="1.1"><rect x="0" y="0" width="960" height="540" fill="#49c36c"></rect><path d="M0 466L13.3 472.2C26.7 478.3 53.3 490.7 80 491.3C106.7 492 133.3 481 160 478.2C186.7 475.3 213.3 480.7 240 484.7C266.7 488.7 293.3 491.3 320 493.5C346.7 495.7 373.3 497.3 400 496.3C426.7 495.3 453.3 491.7 480 488.8C506.7 486 533.3 484 560 479.8C586.7 475.7 613.3 469.3 640 471.3C666.7 473.3 693.3 483.7 720 491C746.7 498.3 773.3 502.7 800 503C826.7 503.3 853.3 499.7 880 496.3C906.7 493 933.3 490 946.7 488.5L960 487L960 541L946.7 541C933.3 541 906.7 541 880 541C853.3 541 826.7 541 800 541C773.3 541 746.7 541 720 541C693.3 541 666.7 541 640 541C613.3 541 586.7 541 560 541C533.3 541 506.7 541 480 541C453.3 541 426.7 541 400 541C373.3 541 346.7 541 320 541C293.3 541 266.7 541 240 541C213.3 541 186.7 541 160 541C133.3 541 106.7 541 80 541C53.3 541 26.7 541 13.3 541L0 541Z" fill="#21201e" stroke-linecap="round" stroke-linejoin="miter"></path></svg>