<svg id="visual" viewBox="0 0 960 540" width="960" height="540" xmlns="http://www.w3.org/2000/svg" xmlns:xlink="http://www.w3.org/1999/xlink" version="1.1"><rect x="0" y="0" width="960" height="540" fill="#3872f2"></rect><path d="M0 497L13.3 492.3C26.7 487.7 53.3 478.3 80 477.8C106.7 477.3 133.3 485.7 160 487.2C186.7 488.7 213.3 483.3 240 483.2C266.7 483 293.3 488 320 485C346.7 482 373.3 471 400 472.7C426.7 474.3 453.3 488.7 480 496.2C506.7 503.7 533.3 504.3 560 501.7C586.7 499 613.3 493 640 487.8C666.7 482.7 693.3 478.3 720 478.3C746.7 478.3 773.3 482.7 800 484.3C826.7 486 853.3 485 880 488.2C906.7 491.3 933.3 498.7 946.7 502.3L960 506L960 541L946.7 541C933.3 541 906.7 541 880 541C853.3 541 826.7 541 800 541C773.3 541 746.7 541 720 541C693.3 541 666.7 541 640 541C613.3 541 586.7 541 560 541C533.3 541 506.7 541 480 541C453.3 541 426.7 541 400 541C373.3 541 346.7 541 320 541C293.3 541 266.7 541 240 541C213.3 541 186.7 541 160 541C133.3 541 106.7 541 80 541C53.3 541 26.7 541 13.3 541L0 541Z" fill="#49c36c" stroke-linecap="round" stroke-linejoin="miter"></path></svg>